<svg width="32" height="24" viewBox="0 0 32 24" fill="none" xmlns="http://www.w3.org/2000/svg">
<path d="M14.8444 3.69714C14.8444 2.1089 14.1333 0.167725 10.8444 0.167725C9.24444 0.167725 8.62222 0.608901 7.82222 1.13831C6.93333 1.75596 5.77778 2.55008 3.46667 2.55008C1.95556 2.55008 0.888889 2.28537 0 1.93243C0.977778 4.31478 3.37778 7.31478 9.51111 7.31478C12.7111 7.22655 14.8444 5.37361 14.8444 3.69714Z" fill="#F0F0F0"/>
<path d="M21.9555 16.6676C18.8444 16.6676 16.9778 15.697 16 14.9029C15.0222 15.697 13.1555 16.6676 10.0444 16.6676C5.15554 16.6676 3.46666 10.2264 3.02221 8.28527C2.66666 8.1088 2.39999 8.02057 2.04443 7.84409L2.48888 11.9029C3.28888 18.7853 11.8222 23.3735 16 23.7264C19.9111 23.2853 28.4444 18.7853 29.3333 11.9029L29.7778 7.75586C29.5111 7.93233 29.1555 8.1088 28.8 8.28527C28.5333 10.3147 26.8444 16.6676 21.9555 16.6676Z" fill="#F0F0F0"/>
<path d="M24.2666 1.13831C23.4666 0.608901 22.7555 0.167725 21.2444 0.167725C17.9555 0.167725 17.2444 2.1089 17.2444 3.69714C17.2444 5.37361 19.3777 7.22655 22.4888 7.22655C28.6222 7.22655 31.0222 4.22655 31.9999 1.8442C31.1111 2.19714 30.0444 2.46184 28.6222 2.46184C26.3111 2.55008 25.1555 1.75596 24.2666 1.13831Z" fill="#F0F0F0"/>
</svg>
