<svg width="133" height="110" viewBox="0 0 133 110" fill="none" xmlns="http://www.w3.org/2000/svg">
<path d="M59.75 10.4751C59.75 5.9751 57.75 0.475098 48.5 0.475098C44 0.475098 42.25 1.7251 40 3.2251C37.5 4.9751 34.25 7.2251 27.75 7.2251C23.5 7.2251 20.5 6.4751 18 5.4751C20.75 12.2251 27.5 20.7251 44.75 20.7251C53.75 20.4751 59.75 15.2251 59.75 10.4751Z" fill="#F0F0F0"/>
<path d="M79.75 47.2251C71 47.2251 65.75 44.4751 63 42.2251C60.25 44.4751 55 47.2251 46.25 47.2251C32.5 47.2251 27.75 28.9751 26.5 23.4751C25.5 22.9751 24.75 22.7251 23.75 22.2251L25 33.7251C27.25 53.2251 51.25 66.2251 63 67.2251C74 65.9751 98 53.2251 100.5 33.7251L101.75 21.9751C101 22.4751 100 22.9751 99 23.4751C98.25 29.2251 93.5 47.2251 79.75 47.2251Z" fill="#F0F0F0"/>
<path d="M86.25 3.2251C84 1.7251 82 0.475098 77.75 0.475098C68.5 0.475098 66.5 5.9751 66.5 10.4751C66.5 15.2251 72.5 20.4751 81.25 20.4751C98.5 20.4751 105.25 11.9751 108 5.2251C105.5 6.2251 102.5 6.9751 98.5 6.9751C92 7.2251 88.75 4.9751 86.25 3.2251Z" fill="#F0F0F0"/>
<path d="M19.75 99.0469C18.9271 100.12 17.7865 100.932 16.3281 101.484C14.8698 102.036 13.2135 102.312 11.3594 102.312C9.45312 102.312 7.76562 101.88 6.29688 101.016C4.82812 100.151 3.69271 98.9167 2.89062 97.3125C2.09896 95.6979 1.6875 93.8177 1.65625 91.6719V89.8906C1.65625 86.4531 2.47917 83.7708 4.125 81.8438C5.77083 79.9062 8.06771 78.9375 11.0156 78.9375C13.5469 78.9375 15.5573 79.5625 17.0469 80.8125C18.5365 82.0625 19.4323 83.8646 19.7344 86.2188H15.8594C15.4219 83.4792 13.8333 82.1094 11.0938 82.1094C9.32292 82.1094 7.97396 82.75 7.04688 84.0312C6.13021 85.3021 5.65625 87.1719 5.625 89.6406V91.3906C5.625 93.849 6.14062 95.7604 7.17188 97.125C8.21354 98.4792 9.65625 99.1562 11.5 99.1562C13.5208 99.1562 14.9583 98.6979 15.8125 97.7812V93.3281H11.125V90.3281H19.75V99.0469ZM23.0156 93.3906C23.0156 91.7344 23.3438 90.2448 24 88.9219C24.6562 87.5885 25.5781 86.5677 26.7656 85.8594C27.9531 85.1406 29.3177 84.7812 30.8594 84.7812C33.1406 84.7812 34.9896 85.5156 36.4062 86.9844C37.8333 88.4531 38.6042 90.401 38.7188 92.8281L38.7344 93.7188C38.7344 95.3854 38.4115 96.875 37.7656 98.1875C37.1302 99.5 36.2135 100.516 35.0156 101.234C33.8281 101.953 32.4531 102.312 30.8906 102.312C28.5052 102.312 26.5938 101.521 25.1562 99.9375C23.7292 98.3438 23.0156 96.224 23.0156 93.5781V93.3906ZM26.8125 93.7188C26.8125 95.4583 27.1719 96.8229 27.8906 97.8125C28.6094 98.7917 29.6094 99.2812 30.8906 99.2812C32.1719 99.2812 33.1667 98.7812 33.875 97.7812C34.5938 96.7812 34.9531 95.3177 34.9531 93.3906C34.9531 91.6823 34.5833 90.3281 33.8438 89.3281C33.1146 88.3281 32.1198 87.8281 30.8594 87.8281C29.6198 87.8281 28.6354 88.3229 27.9062 89.3125C27.1771 90.2917 26.8125 91.7604 26.8125 93.7188Z" fill="#FE346E"/>
<path d="M42.875 102V79.25H49.5938C52.0312 79.25 53.8802 79.7552 55.1406 80.7656C56.401 81.7656 57.0312 83.2448 57.0312 85.2031C57.0312 86.3802 56.7083 87.4062 56.0625 88.2812C55.4271 89.1458 54.5521 89.7656 53.4375 90.1406C54.7604 90.4323 55.8229 91.0833 56.625 92.0938C57.4375 93.1042 57.8438 94.2708 57.8438 95.5938C57.8438 97.6042 57.1927 99.1771 55.8906 100.312C54.599 101.438 52.7969 102 50.4844 102H42.875ZM44.7969 91.0625V100.375H50.5625C52.2083 100.375 53.5104 99.9583 54.4688 99.125C55.4375 98.2812 55.9219 97.1146 55.9219 95.625C55.9219 94.2188 55.4583 93.1094 54.5312 92.2969C53.6146 91.474 52.3438 91.0625 50.7188 91.0625H44.7969ZM44.7969 89.4531H50.0469C51.651 89.4219 52.8906 89.0469 53.7656 88.3281C54.651 87.599 55.0938 86.5417 55.0938 85.1562C55.0938 83.6979 54.6354 82.625 53.7188 81.9375C52.8125 81.2396 51.4375 80.8906 49.5938 80.8906H44.7969V89.4531ZM72.7344 102C72.5469 101.469 72.4271 100.682 72.375 99.6406C71.7188 100.495 70.8802 101.156 69.8594 101.625C68.849 102.083 67.776 102.312 66.6406 102.312C65.0156 102.312 63.6979 101.859 62.6875 100.953C61.6875 100.047 61.1875 98.901 61.1875 97.5156C61.1875 95.8698 61.8698 94.5677 63.2344 93.6094C64.6094 92.651 66.5208 92.1719 68.9688 92.1719H72.3594V90.25C72.3594 89.0417 71.9844 88.0938 71.2344 87.4062C70.4948 86.7083 69.4115 86.3594 67.9844 86.3594C66.6823 86.3594 65.6042 86.6927 64.75 87.3594C63.8958 88.026 63.4688 88.8281 63.4688 89.7656L61.5938 89.75C61.5938 88.4062 62.2188 87.2448 63.4688 86.2656C64.7188 85.276 66.2552 84.7812 68.0781 84.7812C69.9635 84.7812 71.4479 85.2552 72.5312 86.2031C73.625 87.1406 74.1875 88.4531 74.2188 90.1406V98.1406C74.2188 99.776 74.3906 101 74.7344 101.812V102H72.7344ZM66.8594 100.656C68.1094 100.656 69.224 100.354 70.2031 99.75C71.1927 99.1458 71.9115 98.3385 72.3594 97.3281V93.6094H69.0156C67.151 93.6302 65.6927 93.974 64.6406 94.6406C63.5885 95.2969 63.0625 96.2031 63.0625 97.3594C63.0625 98.3073 63.4115 99.0938 64.1094 99.7188C64.8177 100.344 65.7344 100.656 66.8594 100.656ZM87.0312 86.6875C86.6354 86.6146 86.2135 86.5781 85.7656 86.5781C84.599 86.5781 83.6094 86.9062 82.7969 87.5625C81.9948 88.2083 81.4219 89.151 81.0781 90.3906V102H79.2188V85.0938H81.0469L81.0781 87.7812C82.0677 85.7812 83.6562 84.7812 85.8438 84.7812C86.3646 84.7812 86.776 84.849 87.0781 84.9844L87.0312 86.6875ZM103.609 93.7188C103.609 96.3542 103.026 98.4479 101.859 100C100.693 101.542 99.125 102.312 97.1562 102.312C94.8021 102.312 93.0208 101.438 91.8125 99.6875L91.7344 102H89.9844V78H91.8438V87.5469C93.0312 85.7031 94.7917 84.7812 97.125 84.7812C99.125 84.7812 100.703 85.5469 101.859 87.0781C103.026 88.599 103.609 90.7188 103.609 93.4375V93.7188ZM101.734 93.3906C101.734 91.1615 101.302 89.4427 100.438 88.2344C99.5729 87.0156 98.3542 86.4062 96.7812 86.4062C95.5833 86.4062 94.5677 86.7031 93.7344 87.2969C92.901 87.8802 92.2708 88.7396 91.8438 89.875V97.5C92.7812 99.625 94.4375 100.688 96.8125 100.688C98.3542 100.688 99.5573 100.078 100.422 98.8594C101.297 97.6406 101.734 95.8177 101.734 93.3906ZM114.297 102.312C112.859 102.312 111.557 101.958 110.391 101.25C109.234 100.542 108.333 99.5573 107.688 98.2969C107.042 97.026 106.719 95.6042 106.719 94.0312V93.3594C106.719 91.7344 107.031 90.2708 107.656 88.9688C108.292 87.6667 109.172 86.6458 110.297 85.9062C111.422 85.1562 112.641 84.7812 113.953 84.7812C116.005 84.7812 117.63 85.4844 118.828 86.8906C120.036 88.2865 120.641 90.1979 120.641 92.625V93.6719H108.578V94.0312C108.578 95.9479 109.125 97.5469 110.219 98.8281C111.323 100.099 112.708 100.734 114.375 100.734C115.375 100.734 116.255 100.552 117.016 100.188C117.786 99.8229 118.484 99.2396 119.109 98.4375L120.281 99.3281C118.906 101.318 116.911 102.312 114.297 102.312ZM113.953 86.375C112.547 86.375 111.359 86.8906 110.391 87.9219C109.432 88.9531 108.849 90.3385 108.641 92.0781H118.781V91.875C118.729 90.25 118.266 88.9271 117.391 87.9062C116.516 86.8854 115.37 86.375 113.953 86.375ZM132.094 86.6875C131.698 86.6146 131.276 86.5781 130.828 86.5781C129.661 86.5781 128.672 86.9062 127.859 87.5625C127.057 88.2083 126.484 89.151 126.141 90.3906V102H124.281V85.0938H126.109L126.141 87.7812C127.13 85.7812 128.719 84.7812 130.906 84.7812C131.427 84.7812 131.839 84.849 132.141 84.9844L132.094 86.6875Z" fill="#F0F0F0"/>
</svg>
